 http://www.shotpix.com/images/08080516697860691018.jpg

General

Complete name                            : Sean Paul - We Be Burnin' 720p.mkv
Format                                   : Matroska
Format version                           : Version 1
File size                                : 61.1 MiB
Duration                                 : 3mn 18s
Overall bit rate mode                    : Variable
Overall bit rate                         : 2 582 Kbps
Encoded date                             : UTC 2009-02-03 16:44:05
Writing application                      : mkvmerge v2.2.0 ('Turn It On Again') built on Jul  1 2008 15:44:46
Writing library                          : libebml v0.7.7 + libmatroska v0.8.1
Attachment                               : This video has been downloaded from Vuze.com  
using Azureus

Video
ID                                       : 1
Format                                   : AVC
Format/Info                              : Advanced Video Codec
Format profile                           : Main@L5.1
Format settings, CABAC                   : Yes
Format settings, ReFrames                : 5 frames
Codec ID                                 : V_MPEG4/ISO/AVC
Duration                                 : 3mn 18s
Bit rate                                 : 2 428 Kbps
Width                                    : 1 264 pixels
Height                                   : 608 pixels
Display aspect ratio                     : 2.079
Frame rate                               : 29.970 fps
Color space                              : YUV
Chroma subsampling                       : 4:2:0
Bit depth                                : 8 bits
Scan type                                : Progressive
Bits/(Pixel*Frame)                       : 0.105
Stream size                              : 56.1 MiB (92%)
Writing library                          : x264 core 60 r0+892 ad1d7a4
Encoding settings                        : cabac=1 / ref=5 / deblock=1:0:0 /  
analyse=0x1:0x131 / me=umh / subme=7 / brdo=0 / mixed_ref=0 / me_range=32 / chroma_me=1 /  
trellis=1 / 8x8dct=0 / cqm=0 / deadzone=21,11 / chroma_qp_offset=0 / threads=6 / nr=0 /  
decimate=1 / mbaff=0 / bframes=3 / b_pyramid=1 / b_adapt=1 / b_bias=0 / direct=3 / wpredb=0  
/ bime=0 / keyint=250 / keyint_min=25 / scenecut=40(pre) / rc=2pass / bitrate=2428 /  
ratetol=1.0 / rceq='blurCplx^(1-qComp)' / qcomp=1.00 / qpmin=10 / qpmax=51 / qpstep=4 /  
cplxblur=20.0 / qblur=0.5 / ip_ratio=1.40 / pb_ratio=1.30 / aq=2:1.00
Default                                  : Yes
Forced                                   : No

Audio
ID                                       : 2
Format                                   : Vorbis
Format settings, Floor                   : 1
Codec ID                                 : A_VORBIS
Duration                                 : 3mn 18s
Bit rate mode                            : Variable
Bit rate                                 : 160 Kbps
Channel(s)                               : 2 channels
Sampling rate                            : 44.1 KHz
Compression mode                         : Lossy
Stream size                              : 3.79 MiB (6%)
Writing library                          : libVorbis 1.2 (UTC 2007-06-22)
Default                                  : Yes
Forced                                   : No
 
http://www.shotpix.com/images/32242914438313652997.jpg 
http://www.shotpix.com/images/64255253442962960447.jpg
